%TF.GenerationSoftware,KiCad,Pcbnew,9.0.2*%
%TF.CreationDate,2025-10-13T00:09:24+02:00*%
%TF.ProjectId,STM32 RC AUTO,53544d33-3220-4524-9320-4155544f2e6b,rev?*%
%TF.SameCoordinates,Original*%
%TF.FileFunction,Soldermask,Bot*%
%TF.FilePolarity,Negative*%
%FSLAX46Y46*%
G04 Gerber Fmt 4.6, Leading zero omitted, Abs format (unit mm)*
G04 Created by KiCad (PCBNEW 9.0.2) date 2025-10-13 00:09:24*
%MOMM*%
%LPD*%
G01*
G04 APERTURE LIST*
G04 Aperture macros list*
%AMRoundRect*
0 Rectangle with rounded corners*
0 $1 Rounding radius*
0 $2 $3 $4 $5 $6 $7 $8 $9 X,Y pos of 4 corners*
0 Add a 4 corners polygon primitive as box body*
4,1,4,$2,$3,$4,$5,$6,$7,$8,$9,$2,$3,0*
0 Add four circle primitives for the rounded corners*
1,1,$1+$1,$2,$3*
1,1,$1+$1,$4,$5*
1,1,$1+$1,$6,$7*
1,1,$1+$1,$8,$9*
0 Add four rect primitives between the rounded corners*
20,1,$1+$1,$2,$3,$4,$5,0*
20,1,$1+$1,$4,$5,$6,$7,0*
20,1,$1+$1,$6,$7,$8,$9,0*
20,1,$1+$1,$8,$9,$2,$3,0*%
G04 Aperture macros list end*
%ADD10RoundRect,0.250000X-0.600000X-0.750000X0.600000X-0.750000X0.600000X0.750000X-0.600000X0.750000X0*%
%ADD11O,1.700000X2.000000*%
%ADD12RoundRect,0.237500X-0.237500X0.300000X-0.237500X-0.300000X0.237500X-0.300000X0.237500X0.300000X0*%
%ADD13RoundRect,0.250000X0.300000X0.300000X-0.300000X0.300000X-0.300000X-0.300000X0.300000X-0.300000X0*%
%ADD14RoundRect,0.102000X-0.754000X-0.754000X0.754000X-0.754000X0.754000X0.754000X-0.754000X0.754000X0*%
%ADD15C,1.712000*%
%ADD16RoundRect,0.237500X-0.250000X-0.237500X0.250000X-0.237500X0.250000X0.237500X-0.250000X0.237500X0*%
%ADD17C,0.650000*%
%ADD18O,2.100000X1.000000*%
%ADD19O,1.800000X1.000000*%
G04 APERTURE END LIST*
D10*
%TO.C,J4*%
X83000000Y-133975000D03*
D11*
X85500000Y-133975000D03*
%TD*%
D10*
%TO.C,J3*%
X83000000Y-140725000D03*
D11*
X85500000Y-140725000D03*
%TD*%
D10*
%TO.C,J2*%
X74500000Y-140725000D03*
D11*
X77000000Y-140725000D03*
%TD*%
D12*
%TO.C,C10*%
X61500000Y-127387500D03*
X61500000Y-129112500D03*
%TD*%
%TO.C,C7*%
X61500000Y-121137500D03*
X61500000Y-122862500D03*
%TD*%
D13*
%TO.C,D7*%
X72900000Y-109500000D03*
X70100000Y-109500000D03*
%TD*%
D14*
%TO.C,K2*%
X68450000Y-128090000D03*
D15*
X68450000Y-123010000D03*
X73530000Y-123010000D03*
X73530000Y-128090000D03*
X76070000Y-123010000D03*
X78610000Y-123010000D03*
X81150000Y-123010000D03*
X76070000Y-128090000D03*
X78610000Y-128090000D03*
X81150000Y-128090000D03*
%TD*%
D14*
%TO.C,K1*%
X65670000Y-136000000D03*
D15*
X65670000Y-130920000D03*
X70750000Y-130920000D03*
X70750000Y-136000000D03*
X73290000Y-130920000D03*
X75830000Y-130920000D03*
X78370000Y-130920000D03*
X73290000Y-136000000D03*
X75830000Y-136000000D03*
X78370000Y-136000000D03*
%TD*%
D16*
%TO.C,R3*%
X66587500Y-110000000D03*
X68412500Y-110000000D03*
%TD*%
D17*
%TO.C,J1*%
X57605000Y-102110000D03*
X57605000Y-107890000D03*
D18*
X58125000Y-100680000D03*
D19*
X53925000Y-100680000D03*
D18*
X58125000Y-109320000D03*
D19*
X53925000Y-109320000D03*
%TD*%
M02*
