M48
; DRILL file {KiCad 9.0.2} date 2025-10-13T00:09:32+0200
; FORMAT={-:-/ absolute / metric / decimal}
; #@! TF.CreationDate,2025-10-13T00:09:32+02:00
; #@! TF.GenerationSoftware,Kicad,Pcbnew,9.0.2
; #@! TF.FileFunction,Plated,1,4,PTH
FMAT,2
METRIC
; #@! TA.AperFunction,Plated,PTH,ComponentDrill
T1C0.200
; #@! TA.AperFunction,Plated,PTH,ViaDrill
T2C0.300
; #@! TA.AperFunction,Plated,PTH,ComponentDrill
T3C0.600
; #@! TA.AperFunction,Plated,PTH,ComponentDrill
T4C1.000
%
G90
G05
T1
X65.0Y-140.75
X65.0Y-141.95
X65.0Y-143.15
X66.4Y-140.75
X66.4Y-141.95
X66.4Y-143.15
X95.35Y-121.25
X95.35Y-122.45
X95.35Y-123.65
X95.5Y-131.75
X95.5Y-132.95
X95.5Y-134.15
X96.75Y-121.25
X96.75Y-122.45
X96.75Y-123.65
X96.9Y-131.75
X96.9Y-132.95
X96.9Y-134.15
T2
X54.0Y-137.25
X59.5Y-143.875
X61.45Y-111.647
X61.45Y-118.647
X61.45Y-125.647
X61.45Y-130.207
X62.75Y-138.5
X64.25Y-121.5
X66.8Y-110.0
X68.412Y-110.0
X70.1Y-109.5
X72.941Y-114.5
X92.25Y-136.5
X92.337Y-138.0
X97.5Y-138.0
X97.625Y-136.5
X98.5Y-120.5
T4
X65.67Y-130.92
X65.67Y-136.0
X68.45Y-123.01
X68.45Y-128.09
X70.75Y-130.92
X70.75Y-136.0
X73.29Y-130.92
X73.29Y-136.0
X73.53Y-123.01
X73.53Y-128.09
X74.5Y-140.725
X75.83Y-130.92
X75.83Y-136.0
X76.07Y-123.01
X76.07Y-128.09
X77.0Y-140.725
X78.37Y-130.92
X78.37Y-136.0
X78.61Y-123.01
X78.61Y-128.09
X81.15Y-123.01
X81.15Y-128.09
X83.0Y-133.975
X83.0Y-140.725
X85.5Y-133.975
X85.5Y-140.725
T3
G00X54.325Y-100.68
M15
G01X53.525Y-100.68
M16
G05
G00X54.325Y-109.32
M15
G01X53.525Y-109.32
M16
G05
G00X58.675Y-100.68
M15
G01X57.575Y-100.68
M16
G05
G00X58.675Y-109.32
M15
G01X57.575Y-109.32
M16
G05
M30
