%TF.GenerationSoftware,KiCad,Pcbnew,9.0.2*%
%TF.CreationDate,2025-10-13T00:09:24+02:00*%
%TF.ProjectId,STM32 RC AUTO,53544d33-3220-4524-9320-4155544f2e6b,rev?*%
%TF.SameCoordinates,Original*%
%TF.FileFunction,Paste,Top*%
%TF.FilePolarity,Positive*%
%FSLAX46Y46*%
G04 Gerber Fmt 4.6, Leading zero omitted, Abs format (unit mm)*
G04 Created by KiCad (PCBNEW 9.0.2) date 2025-10-13 00:09:24*
%MOMM*%
%LPD*%
G01*
G04 APERTURE LIST*
G04 Aperture macros list*
%AMRoundRect*
0 Rectangle with rounded corners*
0 $1 Rounding radius*
0 $2 $3 $4 $5 $6 $7 $8 $9 X,Y pos of 4 corners*
0 Add a 4 corners polygon primitive as box body*
4,1,4,$2,$3,$4,$5,$6,$7,$8,$9,$2,$3,0*
0 Add four circle primitives for the rounded corners*
1,1,$1+$1,$2,$3*
1,1,$1+$1,$4,$5*
1,1,$1+$1,$6,$7*
1,1,$1+$1,$8,$9*
0 Add four rect primitives between the rounded corners*
20,1,$1+$1,$2,$3,$4,$5,0*
20,1,$1+$1,$4,$5,$6,$7,0*
20,1,$1+$1,$6,$7,$8,$9,0*
20,1,$1+$1,$8,$9,$2,$3,0*%
G04 Aperture macros list end*
%ADD10C,0.010000*%
%ADD11R,1.070000X2.160000*%
%ADD12RoundRect,0.250000X-1.000000X-0.750000X1.000000X-0.750000X1.000000X0.750000X-1.000000X0.750000X0*%
%ADD13RoundRect,0.237500X0.250000X0.237500X-0.250000X0.237500X-0.250000X-0.237500X0.250000X-0.237500X0*%
%ADD14RoundRect,0.237500X-0.250000X-0.237500X0.250000X-0.237500X0.250000X0.237500X-0.250000X0.237500X0*%
%ADD15RoundRect,0.237500X-0.237500X0.287500X-0.237500X-0.287500X0.237500X-0.287500X0.237500X0.287500X0*%
%ADD16RoundRect,0.237500X-0.237500X0.250000X-0.237500X-0.250000X0.237500X-0.250000X0.237500X0.250000X0*%
%ADD17RoundRect,0.237500X0.237500X-0.250000X0.237500X0.250000X-0.237500X0.250000X-0.237500X-0.250000X0*%
%ADD18RoundRect,0.250000X0.300000X-0.300000X0.300000X0.300000X-0.300000X0.300000X-0.300000X-0.300000X0*%
%ADD19RoundRect,0.237500X0.287500X0.237500X-0.287500X0.237500X-0.287500X-0.237500X0.287500X-0.237500X0*%
%ADD20RoundRect,0.237500X-0.237500X0.300000X-0.237500X-0.300000X0.237500X-0.300000X0.237500X0.300000X0*%
%ADD21RoundRect,0.237500X0.300000X0.237500X-0.300000X0.237500X-0.300000X-0.237500X0.300000X-0.237500X0*%
%ADD22RoundRect,0.150000X-0.825000X-0.150000X0.825000X-0.150000X0.825000X0.150000X-0.825000X0.150000X0*%
%ADD23RoundRect,0.250000X-0.255000X-0.440000X0.255000X-0.440000X0.255000X0.440000X-0.255000X0.440000X0*%
%ADD24RoundRect,0.150000X0.825000X0.150000X-0.825000X0.150000X-0.825000X-0.150000X0.825000X-0.150000X0*%
%ADD25RoundRect,0.250000X0.255000X0.440000X-0.255000X0.440000X-0.255000X-0.440000X0.255000X-0.440000X0*%
%ADD26RoundRect,0.237500X-0.300000X-0.237500X0.300000X-0.237500X0.300000X0.237500X-0.300000X0.237500X0*%
%ADD27R,5.400000X2.900000*%
%ADD28RoundRect,0.250000X1.275000X1.125000X-1.275000X1.125000X-1.275000X-1.125000X1.275000X-1.125000X0*%
%ADD29RoundRect,0.250000X0.850000X0.350000X-0.850000X0.350000X-0.850000X-0.350000X0.850000X-0.350000X0*%
%ADD30R,1.240000X0.600000*%
%ADD31R,1.240000X0.300000*%
G04 APERTURE END LIST*
D10*
%TO.C,VR1*%
X66135000Y-101795000D02*
X64625000Y-101795000D01*
X64625000Y-100395000D01*
X66135000Y-100395000D01*
X66135000Y-101795000D01*
G36*
X66135000Y-101795000D02*
G01*
X64625000Y-101795000D01*
X64625000Y-100395000D01*
X66135000Y-100395000D01*
X66135000Y-101795000D01*
G37*
X68215000Y-101795000D02*
X66705000Y-101795000D01*
X66705000Y-100395000D01*
X68215000Y-100395000D01*
X68215000Y-101795000D01*
G36*
X68215000Y-101795000D02*
G01*
X66705000Y-101795000D01*
X66705000Y-100395000D01*
X68215000Y-100395000D01*
X68215000Y-101795000D01*
G37*
X70295000Y-101795000D02*
X68785000Y-101795000D01*
X68785000Y-100395000D01*
X70295000Y-100395000D01*
X70295000Y-101795000D01*
G36*
X70295000Y-101795000D02*
G01*
X68785000Y-101795000D01*
X68785000Y-100395000D01*
X70295000Y-100395000D01*
X70295000Y-101795000D01*
G37*
X72375000Y-101795000D02*
X70865000Y-101795000D01*
X70865000Y-100395000D01*
X72375000Y-100395000D01*
X72375000Y-101795000D01*
G36*
X72375000Y-101795000D02*
G01*
X70865000Y-101795000D01*
X70865000Y-100395000D01*
X72375000Y-100395000D01*
X72375000Y-101795000D01*
G37*
X66135000Y-99255000D02*
X64625000Y-99255000D01*
X64625000Y-97855000D01*
X66135000Y-97855000D01*
X66135000Y-99255000D01*
G36*
X66135000Y-99255000D02*
G01*
X64625000Y-99255000D01*
X64625000Y-97855000D01*
X66135000Y-97855000D01*
X66135000Y-99255000D01*
G37*
X68215000Y-99255000D02*
X66705000Y-99255000D01*
X66705000Y-97855000D01*
X68215000Y-97855000D01*
X68215000Y-99255000D01*
G36*
X68215000Y-99255000D02*
G01*
X66705000Y-99255000D01*
X66705000Y-97855000D01*
X68215000Y-97855000D01*
X68215000Y-99255000D01*
G37*
X70295000Y-99255000D02*
X68785000Y-99255000D01*
X68785000Y-97855000D01*
X70295000Y-97855000D01*
X70295000Y-99255000D01*
G36*
X70295000Y-99255000D02*
G01*
X68785000Y-99255000D01*
X68785000Y-97855000D01*
X70295000Y-97855000D01*
X70295000Y-99255000D01*
G37*
X72375000Y-99255000D02*
X70865000Y-99255000D01*
X70865000Y-97855000D01*
X72375000Y-97855000D01*
X72375000Y-99255000D01*
G36*
X72375000Y-99255000D02*
G01*
X70865000Y-99255000D01*
X70865000Y-97855000D01*
X72375000Y-97855000D01*
X72375000Y-99255000D01*
G37*
X64385000Y-96755000D02*
X63165000Y-96755000D01*
X63165000Y-95905000D01*
X64385000Y-95905000D01*
X64385000Y-96755000D01*
G36*
X64385000Y-96755000D02*
G01*
X63165000Y-96755000D01*
X63165000Y-95905000D01*
X64385000Y-95905000D01*
X64385000Y-96755000D01*
G37*
X65735000Y-96755000D02*
X64515000Y-96755000D01*
X64515000Y-95905000D01*
X65735000Y-95905000D01*
X65735000Y-96755000D01*
G36*
X65735000Y-96755000D02*
G01*
X64515000Y-96755000D01*
X64515000Y-95905000D01*
X65735000Y-95905000D01*
X65735000Y-96755000D01*
G37*
X67085000Y-96755000D02*
X65865000Y-96755000D01*
X65865000Y-95905000D01*
X67085000Y-95905000D01*
X67085000Y-96755000D01*
G36*
X67085000Y-96755000D02*
G01*
X65865000Y-96755000D01*
X65865000Y-95905000D01*
X67085000Y-95905000D01*
X67085000Y-96755000D01*
G37*
X68435000Y-96755000D02*
X67215000Y-96755000D01*
X67215000Y-95905000D01*
X68435000Y-95905000D01*
X68435000Y-96755000D01*
G36*
X68435000Y-96755000D02*
G01*
X67215000Y-96755000D01*
X67215000Y-95905000D01*
X68435000Y-95905000D01*
X68435000Y-96755000D01*
G37*
X69785000Y-96755000D02*
X68565000Y-96755000D01*
X68565000Y-95905000D01*
X69785000Y-95905000D01*
X69785000Y-96755000D01*
G36*
X69785000Y-96755000D02*
G01*
X68565000Y-96755000D01*
X68565000Y-95905000D01*
X69785000Y-95905000D01*
X69785000Y-96755000D01*
G37*
X71135000Y-96755000D02*
X69915000Y-96755000D01*
X69915000Y-95905000D01*
X71135000Y-95905000D01*
X71135000Y-96755000D01*
G36*
X71135000Y-96755000D02*
G01*
X69915000Y-96755000D01*
X69915000Y-95905000D01*
X71135000Y-95905000D01*
X71135000Y-96755000D01*
G37*
X72485000Y-96755000D02*
X71265000Y-96755000D01*
X71265000Y-95905000D01*
X72485000Y-95905000D01*
X72485000Y-96755000D01*
G36*
X72485000Y-96755000D02*
G01*
X71265000Y-96755000D01*
X71265000Y-95905000D01*
X72485000Y-95905000D01*
X72485000Y-96755000D01*
G37*
X73835000Y-96755000D02*
X72615000Y-96755000D01*
X72615000Y-95905000D01*
X73835000Y-95905000D01*
X73835000Y-96755000D01*
G36*
X73835000Y-96755000D02*
G01*
X72615000Y-96755000D01*
X72615000Y-95905000D01*
X73835000Y-95905000D01*
X73835000Y-96755000D01*
G37*
%TD*%
D11*
%TO.C,VR1*%
X71900000Y-109545000D03*
X70200000Y-109545000D03*
X68500000Y-109545000D03*
X66800000Y-109545000D03*
X65100000Y-109545000D03*
%TD*%
D12*
%TO.C,RV2*%
X67675000Y-112350000D03*
X76325000Y-114500000D03*
X67675000Y-116650000D03*
%TD*%
D13*
%TO.C,R1*%
X63587500Y-111750000D03*
X65412500Y-111750000D03*
%TD*%
D14*
%TO.C,R10*%
X94912500Y-126000000D03*
X93087500Y-126000000D03*
%TD*%
D15*
%TO.C,D1*%
X59500000Y-142125000D03*
X59500000Y-143875000D03*
%TD*%
D16*
%TO.C,R15*%
X63500000Y-132337500D03*
X63500000Y-134162500D03*
%TD*%
D17*
%TO.C,R14*%
X65750000Y-122162500D03*
X65750000Y-120337500D03*
%TD*%
%TO.C,R12*%
X91500000Y-120912500D03*
X91500000Y-119087500D03*
%TD*%
D14*
%TO.C,R11*%
X93087500Y-127500000D03*
X94912500Y-127500000D03*
%TD*%
D17*
%TO.C,R9*%
X91750000Y-131412500D03*
X91750000Y-129587500D03*
%TD*%
D13*
%TO.C,R8*%
X94162500Y-138000000D03*
X92337500Y-138000000D03*
%TD*%
%TO.C,R7*%
X94162500Y-136500000D03*
X92337500Y-136500000D03*
%TD*%
D16*
%TO.C,R6*%
X54000000Y-135337500D03*
X54000000Y-137162500D03*
%TD*%
%TO.C,R5*%
X52500000Y-135337500D03*
X52500000Y-137162500D03*
%TD*%
D17*
%TO.C,R4*%
X70500000Y-142825000D03*
X70500000Y-141000000D03*
%TD*%
D18*
%TO.C,D9*%
X66000000Y-126650000D03*
X66000000Y-123850000D03*
%TD*%
%TO.C,D8*%
X61500000Y-135400000D03*
X61500000Y-132600000D03*
%TD*%
D19*
%TO.C,D6*%
X98375000Y-127500000D03*
X96625000Y-127500000D03*
%TD*%
%TO.C,D5*%
X98375000Y-126000000D03*
X96625000Y-126000000D03*
%TD*%
%TO.C,D4*%
X99375000Y-138000000D03*
X97625000Y-138000000D03*
%TD*%
%TO.C,D3*%
X99375000Y-136500000D03*
X97625000Y-136500000D03*
%TD*%
D15*
%TO.C,D2*%
X58000000Y-142125000D03*
X58000000Y-143875000D03*
%TD*%
D20*
%TO.C,C4*%
X91500000Y-122637500D03*
X91500000Y-124362500D03*
%TD*%
%TO.C,C3*%
X91750000Y-133137500D03*
X91750000Y-134862500D03*
%TD*%
D21*
%TO.C,C2*%
X64475000Y-138500000D03*
X62750000Y-138500000D03*
%TD*%
D22*
%TO.C,U6*%
X98675000Y-131045000D03*
X98675000Y-132315000D03*
X98675000Y-133585000D03*
X98675000Y-134855000D03*
X93725000Y-134855000D03*
X93725000Y-133585000D03*
X93725000Y-132315000D03*
X93725000Y-131045000D03*
D23*
X96800000Y-133775000D03*
X96800000Y-132125000D03*
X95600000Y-133775000D03*
X95600000Y-132125000D03*
%TD*%
D24*
%TO.C,U3*%
X63225000Y-143855000D03*
X63225000Y-142585000D03*
X63225000Y-141315000D03*
X63225000Y-140045000D03*
X68175000Y-140045000D03*
X68175000Y-141315000D03*
X68175000Y-142585000D03*
X68175000Y-143855000D03*
D25*
X65100000Y-141125000D03*
X65100000Y-142775000D03*
X66300000Y-141125000D03*
X66300000Y-142775000D03*
%TD*%
D22*
%TO.C,U8*%
X98525000Y-120545000D03*
X98525000Y-121815000D03*
X98525000Y-123085000D03*
X98525000Y-124355000D03*
X93575000Y-124355000D03*
X93575000Y-123085000D03*
X93575000Y-121815000D03*
X93575000Y-120545000D03*
D23*
X96650000Y-123275000D03*
X96650000Y-121625000D03*
X95450000Y-123275000D03*
X95450000Y-121625000D03*
%TD*%
D20*
%TO.C,C9*%
X65250000Y-113387500D03*
X65250000Y-115112500D03*
%TD*%
%TO.C,C8*%
X63750000Y-113387500D03*
X63750000Y-115112500D03*
%TD*%
D21*
%TO.C,C6*%
X54362500Y-132250000D03*
X52637500Y-132250000D03*
%TD*%
D26*
%TO.C,C5*%
X52637500Y-133750000D03*
X54362500Y-133750000D03*
%TD*%
D27*
%TO.C,L1*%
X81000000Y-97050000D03*
X81000000Y-106950000D03*
%TD*%
D13*
%TO.C,R13*%
X58912500Y-98500000D03*
X57087500Y-98500000D03*
%TD*%
%TO.C,R2*%
X58912500Y-97000000D03*
X57087500Y-97000000D03*
%TD*%
D28*
%TO.C,U4*%
X56825000Y-122452500D03*
X56825000Y-119402500D03*
X53475000Y-122452500D03*
X53475000Y-119402500D03*
D29*
X61450000Y-123207500D03*
X61450000Y-118647500D03*
%TD*%
D20*
%TO.C,C1*%
X62000000Y-107887500D03*
X62000000Y-109612500D03*
%TD*%
D28*
%TO.C,U5*%
X56825000Y-129452500D03*
X56825000Y-126402500D03*
X53475000Y-129452500D03*
X53475000Y-126402500D03*
D29*
X61450000Y-130207500D03*
X61450000Y-125647500D03*
%TD*%
D30*
%TO.C,J1*%
X58725000Y-101800000D03*
X58725000Y-102600000D03*
D31*
X58725000Y-103750000D03*
X58725000Y-104750000D03*
X58725000Y-105250000D03*
X58725000Y-106250000D03*
D30*
X58725000Y-107400000D03*
X58725000Y-108200000D03*
X58725000Y-108200000D03*
X58725000Y-107400000D03*
D31*
X58725000Y-106750000D03*
X58725000Y-105750000D03*
X58725000Y-104250000D03*
X58725000Y-103250000D03*
D30*
X58725000Y-102600000D03*
X58725000Y-101800000D03*
%TD*%
D28*
%TO.C,U1*%
X56825000Y-115452500D03*
X56825000Y-112402500D03*
X53475000Y-115452500D03*
X53475000Y-112402500D03*
D29*
X61450000Y-116207500D03*
X61450000Y-111647500D03*
%TD*%
M02*
