%TF.GenerationSoftware,KiCad,Pcbnew,9.0.2*%
%TF.CreationDate,2025-10-13T00:09:24+02:00*%
%TF.ProjectId,STM32 RC AUTO,53544d33-3220-4524-9320-4155544f2e6b,rev?*%
%TF.SameCoordinates,Original*%
%TF.FileFunction,Soldermask,Top*%
%TF.FilePolarity,Negative*%
%FSLAX46Y46*%
G04 Gerber Fmt 4.6, Leading zero omitted, Abs format (unit mm)*
G04 Created by KiCad (PCBNEW 9.0.2) date 2025-10-13 00:09:24*
%MOMM*%
%LPD*%
G01*
G04 APERTURE LIST*
G04 Aperture macros list*
%AMRoundRect*
0 Rectangle with rounded corners*
0 $1 Rounding radius*
0 $2 $3 $4 $5 $6 $7 $8 $9 X,Y pos of 4 corners*
0 Add a 4 corners polygon primitive as box body*
4,1,4,$2,$3,$4,$5,$6,$7,$8,$9,$2,$3,0*
0 Add four circle primitives for the rounded corners*
1,1,$1+$1,$2,$3*
1,1,$1+$1,$4,$5*
1,1,$1+$1,$6,$7*
1,1,$1+$1,$8,$9*
0 Add four rect primitives between the rounded corners*
20,1,$1+$1,$2,$3,$4,$5,0*
20,1,$1+$1,$4,$5,$6,$7,0*
20,1,$1+$1,$6,$7,$8,$9,0*
20,1,$1+$1,$8,$9,$2,$3,0*%
G04 Aperture macros list end*
%ADD10C,0.010000*%
%ADD11RoundRect,0.102000X0.535000X-1.080000X0.535000X1.080000X-0.535000X1.080000X-0.535000X-1.080000X0*%
%ADD12RoundRect,0.250000X-1.000000X-0.750000X1.000000X-0.750000X1.000000X0.750000X-1.000000X0.750000X0*%
%ADD13RoundRect,0.237500X0.250000X0.237500X-0.250000X0.237500X-0.250000X-0.237500X0.250000X-0.237500X0*%
%ADD14RoundRect,0.237500X-0.250000X-0.237500X0.250000X-0.237500X0.250000X0.237500X-0.250000X0.237500X0*%
%ADD15RoundRect,0.250000X-0.600000X-0.750000X0.600000X-0.750000X0.600000X0.750000X-0.600000X0.750000X0*%
%ADD16O,1.700000X2.000000*%
%ADD17RoundRect,0.237500X-0.237500X0.287500X-0.237500X-0.287500X0.237500X-0.287500X0.237500X0.287500X0*%
%ADD18RoundRect,0.237500X-0.237500X0.250000X-0.237500X-0.250000X0.237500X-0.250000X0.237500X0.250000X0*%
%ADD19RoundRect,0.237500X0.237500X-0.250000X0.237500X0.250000X-0.237500X0.250000X-0.237500X-0.250000X0*%
%ADD20RoundRect,0.250000X0.300000X-0.300000X0.300000X0.300000X-0.300000X0.300000X-0.300000X-0.300000X0*%
%ADD21RoundRect,0.237500X0.287500X0.237500X-0.287500X0.237500X-0.287500X-0.237500X0.287500X-0.237500X0*%
%ADD22RoundRect,0.237500X-0.237500X0.300000X-0.237500X-0.300000X0.237500X-0.300000X0.237500X0.300000X0*%
%ADD23RoundRect,0.237500X0.300000X0.237500X-0.300000X0.237500X-0.300000X-0.237500X0.300000X-0.237500X0*%
%ADD24R,2.410000X3.300000*%
%ADD25RoundRect,0.150000X-0.825000X-0.150000X0.825000X-0.150000X0.825000X0.150000X-0.825000X0.150000X0*%
%ADD26RoundRect,0.150000X0.825000X0.150000X-0.825000X0.150000X-0.825000X-0.150000X0.825000X-0.150000X0*%
%ADD27RoundRect,0.237500X-0.300000X-0.237500X0.300000X-0.237500X0.300000X0.237500X-0.300000X0.237500X0*%
%ADD28RoundRect,0.102000X-0.754000X-0.754000X0.754000X-0.754000X0.754000X0.754000X-0.754000X0.754000X0*%
%ADD29C,1.712000*%
%ADD30R,5.400000X2.900000*%
%ADD31RoundRect,0.250000X0.850000X0.350000X-0.850000X0.350000X-0.850000X-0.350000X0.850000X-0.350000X0*%
%ADD32RoundRect,0.249997X2.950003X2.650003X-2.950003X2.650003X-2.950003X-2.650003X2.950003X-2.650003X0*%
%ADD33C,0.650000*%
%ADD34R,1.240000X0.600000*%
%ADD35R,1.240000X0.300000*%
%ADD36O,2.100000X1.000000*%
%ADD37O,1.800000X1.000000*%
G04 APERTURE END LIST*
D10*
%TO.C,VR1*%
X74000000Y-97385000D02*
X72765000Y-97385000D01*
X72765000Y-102465000D01*
X64235000Y-102465000D01*
X64235000Y-97385000D01*
X63000000Y-97385000D01*
X63000000Y-95275000D01*
X74000000Y-95275000D01*
X74000000Y-97385000D01*
G36*
X74000000Y-97385000D02*
G01*
X72765000Y-97385000D01*
X72765000Y-102465000D01*
X64235000Y-102465000D01*
X64235000Y-97385000D01*
X63000000Y-97385000D01*
X63000000Y-95275000D01*
X74000000Y-95275000D01*
X74000000Y-97385000D01*
G37*
%TD*%
D11*
%TO.C,VR1*%
X71900000Y-109545000D03*
X70200000Y-109545000D03*
X68500000Y-109545000D03*
X66800000Y-109545000D03*
X65100000Y-109545000D03*
%TD*%
D12*
%TO.C,RV2*%
X67675000Y-112350000D03*
X76325000Y-114500000D03*
X67675000Y-116650000D03*
%TD*%
D13*
%TO.C,R1*%
X63587500Y-111750000D03*
X65412500Y-111750000D03*
%TD*%
D14*
%TO.C,R10*%
X94912500Y-126000000D03*
X93087500Y-126000000D03*
%TD*%
D15*
%TO.C,J4*%
X83000000Y-133975000D03*
D16*
X85500000Y-133975000D03*
%TD*%
D15*
%TO.C,J3*%
X83000000Y-140725000D03*
D16*
X85500000Y-140725000D03*
%TD*%
D15*
%TO.C,J2*%
X74500000Y-140725000D03*
D16*
X77000000Y-140725000D03*
%TD*%
D17*
%TO.C,D1*%
X59500000Y-142125000D03*
X59500000Y-143875000D03*
%TD*%
D18*
%TO.C,R15*%
X63500000Y-132337500D03*
X63500000Y-134162500D03*
%TD*%
D19*
%TO.C,R14*%
X65750000Y-122162500D03*
X65750000Y-120337500D03*
%TD*%
%TO.C,R12*%
X91500000Y-120912500D03*
X91500000Y-119087500D03*
%TD*%
D14*
%TO.C,R11*%
X93087500Y-127500000D03*
X94912500Y-127500000D03*
%TD*%
D19*
%TO.C,R9*%
X91750000Y-131412500D03*
X91750000Y-129587500D03*
%TD*%
D13*
%TO.C,R8*%
X94162500Y-138000000D03*
X92337500Y-138000000D03*
%TD*%
%TO.C,R7*%
X94162500Y-136500000D03*
X92337500Y-136500000D03*
%TD*%
D18*
%TO.C,R6*%
X54000000Y-135337500D03*
X54000000Y-137162500D03*
%TD*%
%TO.C,R5*%
X52500000Y-135337500D03*
X52500000Y-137162500D03*
%TD*%
D19*
%TO.C,R4*%
X70500000Y-142825000D03*
X70500000Y-141000000D03*
%TD*%
D20*
%TO.C,D9*%
X66000000Y-126650000D03*
X66000000Y-123850000D03*
%TD*%
%TO.C,D8*%
X61500000Y-135400000D03*
X61500000Y-132600000D03*
%TD*%
D21*
%TO.C,D6*%
X98375000Y-127500000D03*
X96625000Y-127500000D03*
%TD*%
%TO.C,D5*%
X98375000Y-126000000D03*
X96625000Y-126000000D03*
%TD*%
%TO.C,D4*%
X99375000Y-138000000D03*
X97625000Y-138000000D03*
%TD*%
%TO.C,D3*%
X99375000Y-136500000D03*
X97625000Y-136500000D03*
%TD*%
D17*
%TO.C,D2*%
X58000000Y-142125000D03*
X58000000Y-143875000D03*
%TD*%
D22*
%TO.C,C4*%
X91500000Y-122637500D03*
X91500000Y-124362500D03*
%TD*%
%TO.C,C3*%
X91750000Y-133137500D03*
X91750000Y-134862500D03*
%TD*%
D23*
%TO.C,C2*%
X64475000Y-138500000D03*
X62750000Y-138500000D03*
%TD*%
D24*
%TO.C,U6*%
X96200000Y-132950000D03*
D25*
X98675000Y-131045000D03*
X98675000Y-132315000D03*
X98675000Y-133585000D03*
X98675000Y-134855000D03*
X93725000Y-134855000D03*
X93725000Y-133585000D03*
X93725000Y-132315000D03*
X93725000Y-131045000D03*
%TD*%
D24*
%TO.C,U3*%
X65700000Y-141950000D03*
D26*
X63225000Y-143855000D03*
X63225000Y-142585000D03*
X63225000Y-141315000D03*
X63225000Y-140045000D03*
X68175000Y-140045000D03*
X68175000Y-141315000D03*
X68175000Y-142585000D03*
X68175000Y-143855000D03*
%TD*%
D24*
%TO.C,U8*%
X96050000Y-122450000D03*
D25*
X98525000Y-120545000D03*
X98525000Y-121815000D03*
X98525000Y-123085000D03*
X98525000Y-124355000D03*
X93575000Y-124355000D03*
X93575000Y-123085000D03*
X93575000Y-121815000D03*
X93575000Y-120545000D03*
%TD*%
D22*
%TO.C,C9*%
X65250000Y-113387500D03*
X65250000Y-115112500D03*
%TD*%
%TO.C,C8*%
X63750000Y-113387500D03*
X63750000Y-115112500D03*
%TD*%
D23*
%TO.C,C6*%
X54362500Y-132250000D03*
X52637500Y-132250000D03*
%TD*%
D27*
%TO.C,C5*%
X52637500Y-133750000D03*
X54362500Y-133750000D03*
%TD*%
D28*
%TO.C,K2*%
X68450000Y-128090000D03*
D29*
X68450000Y-123010000D03*
X73530000Y-123010000D03*
X73530000Y-128090000D03*
X76070000Y-123010000D03*
X78610000Y-123010000D03*
X81150000Y-123010000D03*
X76070000Y-128090000D03*
X78610000Y-128090000D03*
X81150000Y-128090000D03*
%TD*%
D28*
%TO.C,K1*%
X65670000Y-136000000D03*
D29*
X65670000Y-130920000D03*
X70750000Y-130920000D03*
X70750000Y-136000000D03*
X73290000Y-130920000D03*
X75830000Y-130920000D03*
X78370000Y-130920000D03*
X73290000Y-136000000D03*
X75830000Y-136000000D03*
X78370000Y-136000000D03*
%TD*%
D30*
%TO.C,L1*%
X81000000Y-97050000D03*
X81000000Y-106950000D03*
%TD*%
D13*
%TO.C,R13*%
X58912500Y-98500000D03*
X57087500Y-98500000D03*
%TD*%
%TO.C,R2*%
X58912500Y-97000000D03*
X57087500Y-97000000D03*
%TD*%
D31*
%TO.C,U4*%
X61450000Y-123207500D03*
D32*
X55150000Y-120927500D03*
D31*
X61450000Y-118647500D03*
%TD*%
D22*
%TO.C,C1*%
X62000000Y-107887500D03*
X62000000Y-109612500D03*
%TD*%
D31*
%TO.C,U5*%
X61450000Y-130207500D03*
D32*
X55150000Y-127927500D03*
D31*
X61450000Y-125647500D03*
%TD*%
D33*
%TO.C,J1*%
X57605000Y-102110000D03*
X57605000Y-107890000D03*
D34*
X58725000Y-101800000D03*
X58725000Y-102600000D03*
D35*
X58725000Y-103750000D03*
X58725000Y-104750000D03*
X58725000Y-105250000D03*
X58725000Y-106250000D03*
D34*
X58725000Y-107400000D03*
X58725000Y-108200000D03*
X58725000Y-108200000D03*
X58725000Y-107400000D03*
D35*
X58725000Y-106750000D03*
X58725000Y-105750000D03*
X58725000Y-104250000D03*
X58725000Y-103250000D03*
D34*
X58725000Y-102600000D03*
X58725000Y-101800000D03*
D36*
X58125000Y-100680000D03*
D37*
X53925000Y-100680000D03*
D36*
X58125000Y-109320000D03*
D37*
X53925000Y-109320000D03*
%TD*%
D31*
%TO.C,U1*%
X61450000Y-116207500D03*
D32*
X55150000Y-113927500D03*
D31*
X61450000Y-111647500D03*
%TD*%
M02*
